# MagicaVoxel @ Ephtracy

# group
o 

# material
mtllib LegoBlock_-0.mtl
usemtl palette

# normals
vn -1 0 0
vn 1 0 0
vn 0 0 1
vn 0 0 -1
vn 0 -1 0
vn 0 1 0

# texcoords
vt 0.251953 0.5
vt 0.255859 0.5
vt 0.259766 0.5
vt 0.267578 0.5

# verts
v -0.7 0 5.96046e-08
v -0.7 0 -0.7
v -0.7 0.2 5.96046e-08
v -0.7 0.2 -0.3
v -0.7 0.2 -0.7
v -0.7 0.4 5.96046e-08
v -0.7 0.4 -0.3
v -0.7 0.4 -0.7
v -0.7 0.5 5.96046e-08
v -0.7 0.5 -0.3
v -0.7 0.6 -0.3
v -0.7 0.6 -0.7
v -0.6 0.2 -0.1
v -0.6 0.2 -0.3
v -0.6 0.3 -0.1
v -0.6 0.3 -0.3
v -0.6 0.6 -0.4
v -0.6 0.6 -0.6
v -0.6 0.7 -0.4
v -0.6 0.7 -0.6
v -0.2 0.2 -0.1
v -0.2 0.2 -0.3
v -0.2 0.3 -0.1
v -0.2 0.3 -0.3
v -0.2 0.6 -0.4
v -0.2 0.6 -0.6
v -0.2 0.7 -0.4
v -0.2 0.7 -0.6
v 0.1 0 0.7
v 0.1 0 0.3
v 0.1 0.2 0.7
v 0.1 0.2 0.3
v 0.2 0.2 0.6
v 0.2 0.2 0.4
v 0.2 0.3 0.6
v 0.2 0.3 0.4
v 0.5 0.2 0.7
v 0.5 0.2 0.3
v 0.5 0.4 0.7
v 0.5 0.4 0.3
v 0.5 0.4 -0.1
v 0.5 0.6 0.7
v 0.5 0.6 -0.1
v 0.6 0.6 0.6
v 0.6 0.6 0.4
v 0.6 0.6 0.2
v 0.6 0.6 5.96046e-08
v 0.6 0.7 0.6
v 0.6 0.7 0.4
v 0.6 0.7 0.2
v 0.6 0.7 5.96046e-08
v -0.4 0.2 -0.1
v -0.4 0.2 -0.3
v -0.4 0.3 -0.1
v -0.4 0.3 -0.3
v -0.4 0.6 -0.4
v -0.4 0.6 -0.6
v -0.4 0.7 -0.4
v -0.4 0.7 -0.6
v -5.96046e-08 0.2 -0.1
v -5.96046e-08 0.2 -0.3
v -5.96046e-08 0.3 -0.1
v -5.96046e-08 0.3 -0.3
v -5.96046e-08 0.6 -0.4
v -5.96046e-08 0.6 -0.6
v -5.96046e-08 0.7 -0.4
v -5.96046e-08 0.7 -0.6
v 0.1 0 5.96046e-08
v 0.1 0 -0.7
v 0.1 0.2 5.96046e-08
v 0.1 0.2 -0.3
v 0.1 0.2 -0.7
v 0.1 0.4 5.96046e-08
v 0.1 0.4 -0.3
v 0.1 0.4 -0.7
v 0.1 0.5 5.96046e-08
v 0.1 0.5 -0.3
v 0.1 0.6 -0.3
v 0.1 0.6 -0.7
v 0.4 0.2 0.6
v 0.4 0.2 0.4
v 0.4 0.3 0.6
v 0.4 0.3 0.4
v 0.8 0.6 0.6
v 0.8 0.6 0.4
v 0.8 0.6 0.2
v 0.8 0.6 5.96046e-08
v 0.8 0.7 0.6
v 0.8 0.7 0.4
v 0.8 0.7 0.2
v 0.8 0.7 5.96046e-08
v 0.9 0 0.7
v 0.9 0 0.3
v 0.9 0.2 0.7
v 0.9 0.2 0.3
v 0.9 0.4 0.7
v 0.9 0.4 0.3
v 0.9 0.4 -0.1
v 0.9 0.6 0.7
v 0.9 0.6 -0.1
v 0.1 0 0.7
v 0.1 0.2 0.7
v 0.5 0.2 0.7
v 0.5 0.4 0.7
v 0.5 0.6 0.7
v 0.9 0 0.7
v 0.9 0.2 0.7
v 0.9 0.4 0.7
v 0.9 0.6 0.7
v 0.2 0.2 0.6
v 0.2 0.3 0.6
v 0.4 0.2 0.6
v 0.4 0.3 0.6
v 0.6 0.6 0.6
v 0.6 0.7 0.6
v 0.8 0.6 0.6
v 0.8 0.7 0.6
v 0.6 0.6 0.2
v 0.6 0.7 0.2
v 0.8 0.6 0.2
v 0.8 0.7 0.2
v -0.7 0 5.96046e-08
v -0.7 0.2 5.96046e-08
v -0.7 0.4 5.96046e-08
v -0.7 0.5 5.96046e-08
v -0.3 0 5.96046e-08
v -0.3 0.2 5.96046e-08
v 0.1 0 5.96046e-08
v 0.1 0.2 5.96046e-08
v 0.1 0.4 5.96046e-08
v 0.1 0.5 5.96046e-08
v -0.6 0.2 -0.1
v -0.6 0.3 -0.1
v -0.4 0.2 -0.1
v -0.4 0.3 -0.1
v -0.2 0.2 -0.1
v -0.2 0.3 -0.1
v -5.96046e-08 0.2 -0.1
v -5.96046e-08 0.3 -0.1
v -0.7 0.2 -0.3
v -0.7 0.4 -0.3
v -0.7 0.5 -0.3
v -0.7 0.6 -0.3
v -0.6 0.2 -0.3
v -0.6 0.3 -0.3
v -0.4 0.2 -0.3
v -0.4 0.3 -0.3
v -0.3 0.2 -0.3
v -0.2 0.2 -0.3
v -0.2 0.3 -0.3
v -5.96046e-08 0.2 -0.3
v -5.96046e-08 0.3 -0.3
v 0.1 0.2 -0.3
v 0.1 0.4 -0.3
v 0.1 0.5 -0.3
v 0.1 0.6 -0.3
v -0.6 0.6 -0.4
v -0.6 0.7 -0.4
v -0.4 0.6 -0.4
v -0.4 0.7 -0.4
v -0.2 0.6 -0.4
v -0.2 0.7 -0.4
v -5.96046e-08 0.6 -0.4
v -5.96046e-08 0.7 -0.4
v 0.2 0.2 0.4
v 0.2 0.3 0.4
v 0.4 0.2 0.4
v 0.4 0.3 0.4
v 0.6 0.6 0.4
v 0.6 0.7 0.4
v 0.8 0.6 0.4
v 0.8 0.7 0.4
v 0.1 0 0.3
v 0.1 0.2 0.3
v 0.5 0.2 0.3
v 0.5 0.4 0.3
v 0.9 0 0.3
v 0.9 0.2 0.3
v 0.9 0.4 0.3
v 0.6 0.6 5.96046e-08
v 0.6 0.7 5.96046e-08
v 0.8 0.6 5.96046e-08
v 0.8 0.7 5.96046e-08
v 0.5 0.4 -0.1
v 0.5 0.6 -0.1
v 0.9 0.4 -0.1
v 0.9 0.6 -0.1
v -0.6 0.6 -0.6
v -0.6 0.7 -0.6
v -0.4 0.6 -0.6
v -0.4 0.7 -0.6
v -0.2 0.6 -0.6
v -0.2 0.7 -0.6
v -5.96046e-08 0.6 -0.6
v -5.96046e-08 0.7 -0.6
v -0.7 0 -0.7
v -0.7 0.2 -0.7
v -0.7 0.4 -0.7
v -0.7 0.6 -0.7
v -0.3 0 -0.7
v -0.3 0.2 -0.7
v 0.1 0 -0.7
v 0.1 0.2 -0.7
v 0.1 0.4 -0.7
v 0.1 0.6 -0.7
v 0.1 0 0.7
v 0.9 0 0.7
v 0.1 0 0.3
v 0.9 0 0.3
v -0.7 0 5.96046e-08
v -0.3 0 5.96046e-08
v 0.1 0 5.96046e-08
v -0.7 0 -0.7
v -0.3 0 -0.7
v 0.1 0 -0.7
v 0.5 0.4 0.3
v 0.9 0.4 0.3
v -0.7 0.4 5.96046e-08
v 0.1 0.4 5.96046e-08
v 0.5 0.4 -0.1
v 0.9 0.4 -0.1
v -0.7 0.4 -0.3
v 0.1 0.4 -0.3
v 0.1 0.2 0.7
v 0.5 0.2 0.7
v 0.2 0.2 0.6
v 0.4 0.2 0.6
v 0.2 0.2 0.4
v 0.4 0.2 0.4
v 0.1 0.2 0.3
v 0.5 0.2 0.3
v -0.7 0.2 5.96046e-08
v -0.3 0.2 5.96046e-08
v 0.1 0.2 5.96046e-08
v -0.6 0.2 -0.1
v -0.4 0.2 -0.1
v -0.2 0.2 -0.1
v -5.96046e-08 0.2 -0.1
v -0.7 0.2 -0.3
v -0.6 0.2 -0.3
v -0.4 0.2 -0.3
v -0.3 0.2 -0.3
v -0.2 0.2 -0.3
v -5.96046e-08 0.2 -0.3
v 0.1 0.2 -0.3
v 0.2 0.3 0.6
v 0.4 0.3 0.6
v 0.2 0.3 0.4
v 0.4 0.3 0.4
v -0.6 0.3 -0.1
v -0.4 0.3 -0.1
v -0.2 0.3 -0.1
v -5.96046e-08 0.3 -0.1
v -0.6 0.3 -0.3
v -0.4 0.3 -0.3
v -0.2 0.3 -0.3
v -5.96046e-08 0.3 -0.3
v -0.7 0.5 5.96046e-08
v 0.1 0.5 5.96046e-08
v -0.7 0.5 -0.3
v 0.1 0.5 -0.3
v 0.5 0.6 0.7
v 0.9 0.6 0.7
v 0.6 0.6 0.6
v 0.8 0.6 0.6
v 0.6 0.6 0.4
v 0.8 0.6 0.4
v 0.6 0.6 0.2
v 0.8 0.6 0.2
v 0.6 0.6 5.96046e-08
v 0.8 0.6 5.96046e-08
v 0.5 0.6 -0.1
v 0.9 0.6 -0.1
v -0.7 0.6 -0.3
v 0.1 0.6 -0.3
v -0.6 0.6 -0.4
v -0.4 0.6 -0.4
v -0.2 0.6 -0.4
v -5.96046e-08 0.6 -0.4
v -0.6 0.6 -0.6
v -0.4 0.6 -0.6
v -0.2 0.6 -0.6
v -5.96046e-08 0.6 -0.6
v -0.7 0.6 -0.7
v 0.1 0.6 -0.7
v 0.6 0.7 0.6
v 0.8 0.7 0.6
v 0.6 0.7 0.4
v 0.8 0.7 0.4
v 0.6 0.7 0.2
v 0.8 0.7 0.2
v 0.6 0.7 5.96046e-08
v 0.8 0.7 5.96046e-08
v -0.6 0.7 -0.4
v -0.4 0.7 -0.4
v -0.2 0.7 -0.4
v -5.96046e-08 0.7 -0.4
v -0.6 0.7 -0.6
v -0.4 0.7 -0.6
v -0.2 0.7 -0.6
v -5.96046e-08 0.7 -0.6

# faces
f 3/1/1 2/1/1 1/1/1
f 4/1/1 2/1/1 3/1/1
f 5/1/1 2/1/1 4/1/1
f 7/4/1 5/4/1 4/4/1
f 8/4/1 5/4/1 7/4/1
f 9/3/1 7/3/1 6/3/1
f 9/3/1 8/3/1 7/3/1
f 10/3/1 8/3/1 9/3/1
f 11/3/1 8/3/1 10/3/1
f 12/3/1 8/3/1 11/3/1
f 15/1/1 14/1/1 13/1/1
f 16/1/1 14/1/1 15/1/1
f 19/3/1 18/3/1 17/3/1
f 20/3/1 18/3/1 19/3/1
f 23/2/1 22/2/1 21/2/1
f 24/2/1 22/2/1 23/2/1
f 27/3/1 26/3/1 25/3/1
f 28/3/1 26/3/1 27/3/1
f 31/1/1 30/1/1 29/1/1
f 32/1/1 30/1/1 31/1/1
f 35/1/1 34/1/1 33/1/1
f 36/1/1 34/1/1 35/1/1
f 39/2/1 38/2/1 37/2/1
f 40/2/1 38/2/1 39/2/1
f 42/4/1 40/4/1 39/4/1
f 42/4/1 41/4/1 40/4/1
f 43/4/1 41/4/1 42/4/1
f 48/4/1 45/4/1 44/4/1
f 49/4/1 45/4/1 48/4/1
f 50/4/1 47/4/1 46/4/1
f 51/4/1 47/4/1 50/4/1
f 52/1/2 53/1/2 54/1/2
f 54/1/2 53/1/2 55/1/2
f 56/3/2 57/3/2 58/3/2
f 58/3/2 57/3/2 59/3/2
f 60/2/2 61/2/2 62/2/2
f 62/2/2 61/2/2 63/2/2
f 64/3/2 65/3/2 66/3/2
f 66/3/2 65/3/2 67/3/2
f 68/2/2 69/2/2 70/2/2
f 70/2/2 69/2/2 71/2/2
f 71/2/2 69/2/2 72/2/2
f 71/4/2 72/4/2 74/4/2
f 74/4/2 72/4/2 75/4/2
f 73/3/2 74/3/2 76/3/2
f 74/3/2 75/3/2 76/3/2
f 76/3/2 75/3/2 77/3/2
f 77/3/2 75/3/2 78/3/2
f 78/3/2 75/3/2 79/3/2
f 80/1/2 81/1/2 82/1/2
f 82/1/2 81/1/2 83/1/2
f 84/4/2 85/4/2 88/4/2
f 88/4/2 85/4/2 89/4/2
f 86/4/2 87/4/2 90/4/2
f 90/4/2 87/4/2 91/4/2
f 92/1/2 93/1/2 94/1/2
f 94/1/2 93/1/2 95/1/2
f 94/2/2 95/2/2 96/2/2
f 96/2/2 95/2/2 97/2/2
f 96/4/2 97/4/2 99/4/2
f 97/4/2 98/4/2 99/4/2
f 99/4/2 98/4/2 100/4/2
f 103/1/3 102/1/3 101/1/3
f 106/1/3 103/1/3 101/1/3
f 107/2/3 104/2/3 103/2/3
f 107/1/3 103/1/3 106/1/3
f 108/4/3 105/4/3 104/4/3
f 108/2/3 104/2/3 107/2/3
f 109/4/3 105/4/3 108/4/3
f 112/1/3 111/1/3 110/1/3
f 113/1/3 111/1/3 112/1/3
f 116/4/3 115/4/3 114/4/3
f 117/4/3 115/4/3 116/4/3
f 120/4/3 119/4/3 118/4/3
f 121/4/3 119/4/3 120/4/3
f 126/1/3 123/1/3 122/1/3
f 127/1/3 123/1/3 126/1/3
f 128/2/3 127/2/3 126/2/3
f 129/2/3 127/2/3 128/2/3
f 130/3/3 125/3/3 124/3/3
f 131/3/3 125/3/3 130/3/3
f 134/1/3 133/1/3 132/1/3
f 135/1/3 133/1/3 134/1/3
f 138/2/3 137/2/3 136/2/3
f 139/2/3 137/2/3 138/2/3
f 144/4/3 141/4/3 140/4/3
f 145/4/3 141/4/3 144/4/3
f 147/4/3 141/4/3 145/4/3
f 148/4/3 147/4/3 146/4/3
f 149/4/3 147/4/3 148/4/3
f 150/4/3 141/4/3 147/4/3
f 150/4/3 147/4/3 149/4/3
f 152/4/3 141/4/3 150/4/3
f 153/4/3 152/4/3 151/4/3
f 154/4/3 141/4/3 152/4/3
f 154/4/3 152/4/3 153/4/3
f 155/3/3 143/3/3 142/3/3
f 156/3/3 143/3/3 155/3/3
f 159/3/3 158/3/3 157/3/3
f 160/3/3 158/3/3 159/3/3
f 163/3/3 162/3/3 161/3/3
f 164/3/3 162/3/3 163/3/3
f 165/1/4 166/1/4 167/1/4
f 167/1/4 166/1/4 168/1/4
f 169/4/4 170/4/4 171/4/4
f 171/4/4 170/4/4 172/4/4
f 173/1/4 174/1/4 175/1/4
f 173/1/4 175/1/4 177/1/4
f 175/2/4 176/2/4 178/2/4
f 177/1/4 175/1/4 178/1/4
f 178/2/4 176/2/4 179/2/4
f 180/4/4 181/4/4 182/4/4
f 182/4/4 181/4/4 183/4/4
f 184/4/4 185/4/4 186/4/4
f 186/4/4 185/4/4 187/4/4
f 188/3/4 189/3/4 190/3/4
f 190/3/4 189/3/4 191/3/4
f 192/3/4 193/3/4 194/3/4
f 194/3/4 193/3/4 195/3/4
f 196/1/4 197/1/4 200/1/4
f 197/4/4 198/4/4 201/4/4
f 200/1/4 197/1/4 201/1/4
f 200/2/4 201/2/4 202/2/4
f 201/4/4 198/4/4 203/4/4
f 202/2/4 201/2/4 203/2/4
f 198/3/4 199/3/4 204/3/4
f 203/4/4 198/4/4 204/4/4
f 204/3/4 199/3/4 205/3/4
f 208/1/5 207/1/5 206/1/5
f 209/1/5 207/1/5 208/1/5
f 213/1/5 211/1/5 210/1/5
f 214/2/5 212/2/5 211/2/5
f 214/1/5 211/1/5 213/1/5
f 215/2/5 212/2/5 214/2/5
f 220/4/5 217/4/5 216/4/5
f 221/4/5 217/4/5 220/4/5
f 222/3/5 219/3/5 218/3/5
f 223/3/5 219/3/5 222/3/5
f 224/1/6 225/1/6 226/1/6
f 226/1/6 225/1/6 227/1/6
f 224/1/6 226/1/6 228/1/6
f 227/1/6 225/1/6 229/1/6
f 224/1/6 228/1/6 230/1/6
f 228/1/6 229/1/6 230/1/6
f 229/1/6 225/1/6 231/1/6
f 230/1/6 229/1/6 231/1/6
f 232/1/6 233/1/6 235/1/6
f 235/1/6 233/1/6 236/1/6
f 233/2/6 234/2/6 237/2/6
f 237/2/6 234/2/6 238/2/6
f 232/1/6 235/1/6 239/1/6
f 239/1/6 235/1/6 240/1/6
f 236/1/6 233/1/6 241/1/6
f 233/2/6 237/2/6 242/2/6
f 241/1/6 233/1/6 242/1/6
f 242/2/6 237/2/6 243/2/6
f 238/2/6 234/2/6 244/2/6
f 244/2/6 234/2/6 245/2/6
f 246/1/6 247/1/6 248/1/6
f 248/1/6 247/1/6 249/1/6
f 250/1/6 251/1/6 254/1/6
f 254/1/6 251/1/6 255/1/6
f 252/2/6 253/2/6 256/2/6
f 256/2/6 253/2/6 257/2/6
f 258/3/6 259/3/6 260/3/6
f 260/3/6 259/3/6 261/3/6
f 262/4/6 263/4/6 264/4/6
f 264/4/6 263/4/6 265/4/6
f 262/4/6 264/4/6 266/4/6
f 265/4/6 263/4/6 267/4/6
f 262/4/6 266/4/6 268/4/6
f 266/4/6 267/4/6 268/4/6
f 267/4/6 263/4/6 269/4/6
f 268/4/6 267/4/6 269/4/6
f 262/4/6 268/4/6 270/4/6
f 269/4/6 263/4/6 271/4/6
f 262/4/6 270/4/6 272/4/6
f 270/4/6 271/4/6 272/4/6
f 271/4/6 263/4/6 273/4/6
f 272/4/6 271/4/6 273/4/6
f 274/3/6 275/3/6 276/3/6
f 276/3/6 275/3/6 277/3/6
f 277/3/6 275/3/6 278/3/6
f 278/3/6 275/3/6 279/3/6
f 274/3/6 276/3/6 280/3/6
f 277/3/6 278/3/6 281/3/6
f 281/3/6 278/3/6 282/3/6
f 279/3/6 275/3/6 283/3/6
f 281/3/6 282/3/6 284/3/6
f 282/3/6 283/3/6 284/3/6
f 274/3/6 280/3/6 284/3/6
f 280/3/6 281/3/6 284/3/6
f 283/3/6 275/3/6 285/3/6
f 284/3/6 283/3/6 285/3/6
f 286/4/6 287/4/6 288/4/6
f 288/4/6 287/4/6 289/4/6
f 290/4/6 291/4/6 292/4/6
f 292/4/6 291/4/6 293/4/6
f 294/3/6 295/3/6 298/3/6
f 298/3/6 295/3/6 299/3/6
f 296/3/6 297/3/6 300/3/6
f 300/3/6 297/3/6 301/3/6
