# MagicaVoxel @ Ephtracy

# group
o 

# material
mtllib LegoBlock-0.mtl
usemtl palette

# normals
vn -1 0 0
vn 1 0 0
vn 0 0 1
vn 0 0 -1
vn 0 -1 0
vn 0 1 0

# texcoords
vt 0.255859 0.5
vt 0.259766 0.5
vt 0.263672 0.5
vt 0.267578 0.5

# verts
v -0.6 0 -8.4
v -0.6 0 -9.1
v -0.6 0.2 -8.4
v -0.6 0.2 -8.7
v -0.6 0.2 -9.1
v -0.6 0.4 -8.7
v -0.6 0.4 -9.1
v -0.5 0.2 -8.5
v -0.5 0.2 -8.7
v -0.5 0.3 -8.5
v -0.5 0.3 -8.7
v -0.5 0.4 -8.8
v -0.5 0.4 -9
v -0.5 0.5 -8.8
v -0.5 0.5 -9
v -0.3 0.4 -8.7
v -0.3 0.4 -8.8
v -0.3 0.4 -9
v -0.3 0.4 -9.1
v -0.3 0.5 -8.8
v -0.3 0.5 -9
v -0.3 0.6 -8.7
v -0.3 0.6 -9.1
v -0.2 0.6 -8.8
v -0.2 0.6 -9
v -0.2 0.7 -8.8
v -0.2 0.7 -9
v 0.1 0.6 -8.8
v 0.1 0.6 -9
v 0.1 0.7 -8.8
v 0.1 0.7 -9
v 0.3 0 -8.4
v 0.3 0 -9.1
v 0.3 0.2 -8.4
v 0.3 0.2 -8.7
v 0.3 0.2 -9.1
v 0.4 0.2 -8.5
v 0.4 0.2 -8.7
v 0.4 0.3 -8.5
v 0.4 0.3 -8.7
v -0.3 0.2 -8.5
v -0.3 0.2 -8.7
v -0.3 0.3 -8.5
v -0.3 0.3 -8.7
v -0.2 0 -8.4
v -0.2 0 -9.1
v -0.2 0.2 -8.4
v -0.2 0.2 -8.7
v -0.2 0.2 -9.1
v -5.96046e-08 0.6 -8.8
v -5.96046e-08 0.6 -9
v -5.96046e-08 0.7 -8.8
v -5.96046e-08 0.7 -9
v 0.3 0.6 -8.8
v 0.3 0.6 -9
v 0.3 0.7 -8.8
v 0.3 0.7 -9
v 0.4 0.4 -8.7
v 0.4 0.4 -8.8
v 0.4 0.4 -9
v 0.4 0.4 -9.1
v 0.4 0.5 -8.8
v 0.4 0.5 -9
v 0.4 0.6 -8.7
v 0.4 0.6 -9.1
v 0.6 0.2 -8.5
v 0.6 0.2 -8.7
v 0.6 0.3 -8.5
v 0.6 0.3 -8.7
v 0.6 0.4 -8.8
v 0.6 0.4 -9
v 0.6 0.5 -8.8
v 0.6 0.5 -9
v 0.7 0 -8.4
v 0.7 0 -9.1
v 0.7 0.2 -8.4
v 0.7 0.2 -8.7
v 0.7 0.2 -9.1
v 0.7 0.4 -8.7
v 0.7 0.4 -9.1
v -0.6 0 -8.4
v -0.6 0.2 -8.4
v -0.2 0 -8.4
v -0.2 0.2 -8.4
v 0.3 0 -8.4
v 0.3 0.2 -8.4
v 0.7 0 -8.4
v 0.7 0.2 -8.4
v -0.5 0.2 -8.5
v -0.5 0.3 -8.5
v -0.3 0.2 -8.5
v -0.3 0.3 -8.5
v 0.4 0.2 -8.5
v 0.4 0.3 -8.5
v 0.6 0.2 -8.5
v 0.6 0.3 -8.5
v -0.6 0.2 -8.7
v -0.6 0.4 -8.7
v -0.5 0.2 -8.7
v -0.5 0.3 -8.7
v -0.3 0.2 -8.7
v -0.3 0.3 -8.7
v -0.3 0.4 -8.7
v -0.3 0.6 -8.7
v -0.2 0.2 -8.7
v 0.3 0.2 -8.7
v 0.4 0.2 -8.7
v 0.4 0.3 -8.7
v 0.4 0.4 -8.7
v 0.4 0.6 -8.7
v 0.6 0.2 -8.7
v 0.6 0.3 -8.7
v 0.7 0.2 -8.7
v 0.7 0.4 -8.7
v -0.5 0.4 -8.8
v -0.5 0.5 -8.8
v -0.3 0.4 -8.8
v -0.3 0.5 -8.8
v -0.2 0.6 -8.8
v -0.2 0.7 -8.8
v -5.96046e-08 0.6 -8.8
v -5.96046e-08 0.7 -8.8
v 0.1 0.6 -8.8
v 0.1 0.7 -8.8
v 0.3 0.6 -8.8
v 0.3 0.7 -8.8
v 0.4 0.4 -8.8
v 0.4 0.5 -8.8
v 0.6 0.4 -8.8
v 0.6 0.5 -8.8
v -0.5 0.4 -9
v -0.5 0.5 -9
v -0.3 0.4 -9
v -0.3 0.5 -9
v -0.2 0.6 -9
v -0.2 0.7 -9
v -5.96046e-08 0.6 -9
v -5.96046e-08 0.7 -9
v 0.1 0.6 -9
v 0.1 0.7 -9
v 0.3 0.6 -9
v 0.3 0.7 -9
v 0.4 0.4 -9
v 0.4 0.5 -9
v 0.6 0.4 -9
v 0.6 0.5 -9
v -0.6 0 -9.1
v -0.6 0.2 -9.1
v -0.6 0.4 -9.1
v -0.3 0.4 -9.1
v -0.3 0.6 -9.1
v -0.2 0 -9.1
v -0.2 0.2 -9.1
v 0.3 0 -9.1
v 0.3 0.2 -9.1
v 0.4 0.4 -9.1
v 0.4 0.6 -9.1
v 0.7 0 -9.1
v 0.7 0.2 -9.1
v 0.7 0.4 -9.1
v -0.6 0 -8.4
v -0.2 0 -8.4
v 0.3 0 -8.4
v 0.7 0 -8.4
v -0.6 0 -9.1
v -0.2 0 -9.1
v 0.3 0 -9.1
v 0.7 0 -9.1
v -0.2 0.2 -8.7
v 0.3 0.2 -8.7
v -0.2 0.2 -9.1
v 0.3 0.2 -9.1
v -0.6 0.2 -8.4
v -0.2 0.2 -8.4
v 0.3 0.2 -8.4
v 0.7 0.2 -8.4
v -0.5 0.2 -8.5
v -0.3 0.2 -8.5
v 0.4 0.2 -8.5
v 0.6 0.2 -8.5
v -0.6 0.2 -8.7
v -0.5 0.2 -8.7
v -0.3 0.2 -8.7
v -0.2 0.2 -8.7
v 0.3 0.2 -8.7
v 0.4 0.2 -8.7
v 0.6 0.2 -8.7
v 0.7 0.2 -8.7
v -0.5 0.3 -8.5
v -0.3 0.3 -8.5
v 0.4 0.3 -8.5
v 0.6 0.3 -8.5
v -0.5 0.3 -8.7
v -0.3 0.3 -8.7
v 0.4 0.3 -8.7
v 0.6 0.3 -8.7
v -0.6 0.4 -8.7
v -0.3 0.4 -8.7
v 0.4 0.4 -8.7
v 0.7 0.4 -8.7
v -0.5 0.4 -8.8
v -0.3 0.4 -8.8
v 0.4 0.4 -8.8
v 0.6 0.4 -8.8
v -0.5 0.4 -9
v -0.3 0.4 -9
v 0.4 0.4 -9
v 0.6 0.4 -9
v -0.6 0.4 -9.1
v -0.3 0.4 -9.1
v 0.4 0.4 -9.1
v 0.7 0.4 -9.1
v -0.5 0.5 -8.8
v -0.3 0.5 -8.8
v 0.4 0.5 -8.8
v 0.6 0.5 -8.8
v -0.5 0.5 -9
v -0.3 0.5 -9
v 0.4 0.5 -9
v 0.6 0.5 -9
v -0.3 0.6 -8.7
v 0.4 0.6 -8.7
v -0.2 0.6 -8.8
v -5.96046e-08 0.6 -8.8
v 0.1 0.6 -8.8
v 0.3 0.6 -8.8
v -0.2 0.6 -9
v -5.96046e-08 0.6 -9
v 0.1 0.6 -9
v 0.3 0.6 -9
v -0.3 0.6 -9.1
v 0.4 0.6 -9.1
v -0.2 0.7 -8.8
v -5.96046e-08 0.7 -8.8
v 0.1 0.7 -8.8
v 0.3 0.7 -8.8
v -0.2 0.7 -9
v -5.96046e-08 0.7 -9
v 0.1 0.7 -9
v 0.3 0.7 -9

# faces
f 3/3/1 2/3/1 1/3/1
f 4/3/1 2/3/1 3/3/1
f 5/3/1 2/3/1 4/3/1
f 6/2/1 5/2/1 4/2/1
f 7/2/1 5/2/1 6/2/1
f 10/3/1 9/3/1 8/3/1
f 11/3/1 9/3/1 10/3/1
f 14/2/1 13/2/1 12/2/1
f 15/2/1 13/2/1 14/2/1
f 20/4/1 17/4/1 16/4/1
f 21/4/1 19/4/1 18/4/1
f 22/4/1 20/4/1 16/4/1
f 22/4/1 21/4/1 20/4/1
f 23/4/1 19/4/1 21/4/1
f 23/4/1 21/4/1 22/4/1
f 26/4/1 25/4/1 24/4/1
f 27/4/1 25/4/1 26/4/1
f 30/4/1 29/4/1 28/4/1
f 31/4/1 29/4/1 30/4/1
f 34/1/1 33/1/1 32/1/1
f 35/1/1 33/1/1 34/1/1
f 36/1/1 33/1/1 35/1/1
f 39/1/1 38/1/1 37/1/1
f 40/1/1 38/1/1 39/1/1
f 41/3/2 42/3/2 43/3/2
f 43/3/2 42/3/2 44/3/2
f 45/3/2 46/3/2 47/3/2
f 47/3/2 46/3/2 48/3/2
f 48/3/2 46/3/2 49/3/2
f 50/4/2 51/4/2 52/4/2
f 52/4/2 51/4/2 53/4/2
f 54/4/2 55/4/2 56/4/2
f 56/4/2 55/4/2 57/4/2
f 58/4/2 59/4/2 62/4/2
f 60/4/2 61/4/2 63/4/2
f 58/4/2 62/4/2 64/4/2
f 62/4/2 63/4/2 64/4/2
f 63/4/2 61/4/2 65/4/2
f 64/4/2 63/4/2 65/4/2
f 66/1/2 67/1/2 68/1/2
f 68/1/2 67/1/2 69/1/2
f 70/2/2 71/2/2 72/2/2
f 72/2/2 71/2/2 73/2/2
f 74/1/2 75/1/2 76/1/2
f 76/1/2 75/1/2 77/1/2
f 77/1/2 75/1/2 78/1/2
f 77/2/2 78/2/2 79/2/2
f 79/2/2 78/2/2 80/2/2
f 83/3/3 82/3/3 81/3/3
f 84/3/3 82/3/3 83/3/3
f 87/1/3 86/1/3 85/1/3
f 88/1/3 86/1/3 87/1/3
f 91/3/3 90/3/3 89/3/3
f 92/3/3 90/3/3 91/3/3
f 95/1/3 94/1/3 93/1/3
f 96/1/3 94/1/3 95/1/3
f 99/2/3 98/2/3 97/2/3
f 100/2/3 98/2/3 99/2/3
f 102/2/3 98/2/3 100/2/3
f 103/2/3 98/2/3 102/2/3
f 105/2/3 102/2/3 101/2/3
f 105/2/3 103/2/3 102/2/3
f 106/2/3 103/2/3 105/2/3
f 107/2/3 103/2/3 106/2/3
f 108/2/3 103/2/3 107/2/3
f 109/4/3 104/4/3 103/4/3
f 109/2/3 103/2/3 108/2/3
f 110/4/3 104/4/3 109/4/3
f 112/2/3 109/2/3 108/2/3
f 113/2/3 112/2/3 111/2/3
f 114/2/3 109/2/3 112/2/3
f 114/2/3 112/2/3 113/2/3
f 117/2/3 116/2/3 115/2/3
f 118/2/3 116/2/3 117/2/3
f 121/4/3 120/4/3 119/4/3
f 122/4/3 120/4/3 121/4/3
f 125/4/3 124/4/3 123/4/3
f 126/4/3 124/4/3 125/4/3
f 129/2/3 128/2/3 127/2/3
f 130/2/3 128/2/3 129/2/3
f 131/2/4 132/2/4 133/2/4
f 133/2/4 132/2/4 134/2/4
f 135/4/4 136/4/4 137/4/4
f 137/4/4 136/4/4 138/4/4
f 139/4/4 140/4/4 141/4/4
f 141/4/4 140/4/4 142/4/4
f 143/2/4 144/2/4 145/2/4
f 145/2/4 144/2/4 146/2/4
f 148/2/4 149/2/4 150/2/4
f 147/3/4 148/3/4 152/3/4
f 148/2/4 150/2/4 153/2/4
f 152/3/4 148/3/4 153/3/4
f 153/2/4 150/2/4 155/2/4
f 150/4/4 151/4/4 156/4/4
f 155/2/4 150/2/4 156/2/4
f 156/4/4 151/4/4 157/4/4
f 154/1/4 155/1/4 158/1/4
f 155/2/4 156/2/4 159/2/4
f 158/1/4 155/1/4 159/1/4
f 159/2/4 156/2/4 160/2/4
f 165/3/5 162/3/5 161/3/5
f 166/3/5 162/3/5 165/3/5
f 167/1/5 164/1/5 163/1/5
f 168/1/5 164/1/5 167/1/5
f 171/2/5 170/2/5 169/2/5
f 172/2/5 170/2/5 171/2/5
f 173/3/6 174/3/6 177/3/6
f 177/3/6 174/3/6 178/3/6
f 175/1/6 176/1/6 179/1/6
f 179/1/6 176/1/6 180/1/6
f 173/3/6 177/3/6 181/3/6
f 181/3/6 177/3/6 182/3/6
f 178/3/6 174/3/6 183/3/6
f 183/3/6 174/3/6 184/3/6
f 175/1/6 179/1/6 185/1/6
f 185/1/6 179/1/6 186/1/6
f 180/1/6 176/1/6 187/1/6
f 187/1/6 176/1/6 188/1/6
f 189/3/6 190/3/6 193/3/6
f 193/3/6 190/3/6 194/3/6
f 191/1/6 192/1/6 195/1/6
f 195/1/6 192/1/6 196/1/6
f 197/2/6 198/2/6 201/2/6
f 201/2/6 198/2/6 202/2/6
f 199/2/6 200/2/6 203/2/6
f 203/2/6 200/2/6 204/2/6
f 197/2/6 201/2/6 205/2/6
f 204/2/6 200/2/6 208/2/6
f 205/2/6 206/2/6 209/2/6
f 197/2/6 205/2/6 209/2/6
f 209/2/6 206/2/6 210/2/6
f 207/2/6 208/2/6 211/2/6
f 208/2/6 200/2/6 212/2/6
f 211/2/6 208/2/6 212/2/6
f 213/2/6 214/2/6 217/2/6
f 217/2/6 214/2/6 218/2/6
f 215/2/6 216/2/6 219/2/6
f 219/2/6 216/2/6 220/2/6
f 221/4/6 222/4/6 223/4/6
f 223/4/6 222/4/6 224/4/6
f 224/4/6 222/4/6 225/4/6
f 225/4/6 222/4/6 226/4/6
f 221/4/6 223/4/6 227/4/6
f 224/4/6 225/4/6 228/4/6
f 228/4/6 225/4/6 229/4/6
f 226/4/6 222/4/6 230/4/6
f 228/4/6 229/4/6 231/4/6
f 229/4/6 230/4/6 231/4/6
f 221/4/6 227/4/6 231/4/6
f 227/4/6 228/4/6 231/4/6
f 230/4/6 222/4/6 232/4/6
f 231/4/6 230/4/6 232/4/6
f 233/4/6 234/4/6 237/4/6
f 237/4/6 234/4/6 238/4/6
f 235/4/6 236/4/6 239/4/6
f 239/4/6 236/4/6 240/4/6
